<mxfile host="app.diagrams.net" modified="2023-11-29T03:20:16.213Z" agent="Mozilla/5.0 (Windows NT 10.0; Win64; x64) AppleWebKit/537.36 (KHTML, like Gecko) Chrome/119.0.0.0 Safari/537.36" version="22.1.4" etag="a21Jrujf1YuIKBB1IK-c" type="github">
  <diagram name="Halaman-1" id="13WCGMMGAoBStpWHaFRB">
    <mxGraphModel>
      <root>
        <mxCell id="0" />
        <mxCell id="1" parent="0" />
      </root>
    </mxGraphModel>
  </diagram>
</mxfile>
